<svg height="512pt" viewBox="0 0 512.00038 512" width="512pt" xmlns="http://www.w3.org/2000/svg"><path d="m483.082031 186.222656c-35.4375-35.4375-89.726562-37.554687-127.390625-10.339844l-80.183594-49.359374c-5.847656-70.742188-65.285156-126.523438-137.515624-126.523438-76.089844 0-137.992188 61.90625-137.992188 137.996094 0 71.820312 55.160156 130.996094 125.339844 137.40625l21.964844 43.925781c-39.769532 12.734375-68.640626 50.050781-68.640626 93.988281 0 54.402344 44.257813 98.660156 98.660157 98.660156 54.402343 0 98.664062-44.257812 98.664062-98.660156 0-50.074218-37.5-91.554687-85.890625-97.835937l-21.460937-42.925781c50.648437-11.527344 90.78125-50.996094 103.28125-101.269532l56.324219 34.667969c-21.9375 37.15625-17.683594 86.804687 15.308593 119.800781 38.558594 38.554688 100.96875 38.5625 139.53125 0 38.554688-38.554687 38.5625-100.96875 0-139.53125zm-247.09375 227.09375c0 32.347656-26.316406 58.664063-58.664062 58.664063-32.347657 0-58.664063-26.316407-58.664063-58.664063 0-32.292968 26.253906-58.660156 58.679688-58.660156.027344 0 .050781-.003906.074218-.003906 32.308594.050781 58.574219 26.347656 58.574219 58.664062zm-97.996093-177.328125c-54.03125 0-97.992188-43.957031-97.992188-97.992187 0-54.039063 43.960938-97.996094 97.992188-97.996094 54.035156 0 97.996093 43.957031 97.996093 97.996094 0 54.035156-43.960937 97.992187-97.996093 97.992187zm316.804687 61.484375c-22.925781 22.925782-60.035156 22.929688-82.960937 0-22.929688-22.925781-22.933594-60.035156 0-82.964844 22.921874-22.925781 60.03125-22.929687 82.960937 0 22.925781 22.925782 22.929687 60.035157 0 82.964844zm0 0"/></svg>